<?xml version="1.0" encoding="UTF-8"?>
<svg id="Layer_2" data-name="Layer 2" xmlns="http://www.w3.org/2000/svg" viewBox="0 0 702.9 101.77">
  <defs>
    <style>
      .cls-1 {
        fill: #ff52b9;
      }

      .cls-2 {
        fill: #f7f4f9;
      }
    </style>
  </defs>
  <g id="Layer_2-2" data-name="Layer 2">
    <g>
      <g>
        <path class="cls-1" d="M69.15,24.4c0,5.22-3.39,8.87-8.09,8.87-1.96,0-3.26-.39-7.31-2.09-4.04-1.7-6.65-2.22-10.44-2.22-13.7,0-21.92,10.18-21.92,27.27s8.22,26.88,22.05,26.88q4.96,0,13.83-4.04c1.57-.65,3.13-1.04,4.44-1.04,4.44,0,8.09,4.18,8.09,9.13,0,8.48-11.09,14.61-26.36,14.61C17.22,101.77,0,83.5,0,55.71S17.74,10.3,43.19,10.3c15.53,0,25.97,5.74,25.97,14.09Z"/>
        <path class="cls-1" d="M138.04,89.11c0,6.79-3.91,11.35-9.66,11.35-4.57,0-7.7-2.48-9.66-7.57-4.83,6-8.74,7.96-15.79,7.96s-13.44-2.48-18.92-7.31c-7.57-6.65-11.35-15.79-11.35-27.4,0-10.57,3.13-18.53,10.05-25.31,5.74-5.74,12.53-8.74,19.96-8.74,6.78,0,10.83,1.96,16.31,7.57,2.09-5.09,4.96-7.18,9.52-7.18,5.35,0,9.52,4.31,9.52,9.79v46.84ZM91.85,66.28c0,10.05,5.22,16.7,13.31,16.7s13.18-6.78,13.18-16.57-5.35-16.44-13.31-16.44-13.18,6.65-13.18,16.31Z"/>
        <path class="cls-1" d="M149.13,43.58c0-6.65,3.78-11.09,9.52-11.09,3.78,0,5.87,1.3,9.26,6.26,5.35-4.83,10.05-6.65,16.83-6.65,4.7,0,9.53,1.17,13.05,3.26,1.96,1.04,3.13,2.22,5.35,5.09,7.7-6.26,12.79-8.35,20.09-8.35,13.31,0,23.09,9.39,23.09,22.18v33.4c0,4.57-.13,5.74-1.3,7.96-1.44,2.87-4.83,4.83-8.22,4.83s-6.92-1.96-8.35-4.83c-1.17-2.22-1.3-3.26-1.3-7.96v-29.1c0-5.87-3.91-9.92-9.79-9.92s-10.05,4.04-10.05,9.92v29.1c0,4.57-.13,5.74-1.3,7.96-1.44,2.87-4.83,4.83-8.22,4.83s-6.92-1.96-8.35-4.83c-1.17-2.22-1.3-3.26-1.3-7.96v-27.27c0-7.44-3.65-11.74-9.92-11.74-5.74,0-9.92,4.18-9.92,9.92v29.1c0,4.57-.13,5.74-1.31,7.96-1.44,2.87-4.83,4.83-8.22,4.83s-6.92-1.96-8.35-4.83c-1.17-2.22-1.31-3.26-1.31-7.96v-44.1Z"/>
        <path class="cls-1" d="M276.87,37.7c5.74-4.18,9.79-5.61,15.53-5.61,16.44,0,29.75,15.14,29.75,34.19s-12.79,34.58-29.62,34.58c-7.18,0-11.87-2.22-15.92-7.57-2.09,4.96-4.83,7.18-9,7.18-5.87,0-9.92-4.18-9.92-10.18V16.57c0-4.57.13-5.74,1.31-7.96,1.43-2.87,4.83-4.83,8.35-4.83s6.78,1.96,8.22,4.83c1.17,2.22,1.3,3.26,1.3,7.96v21.14ZM276.74,66.28c0,9.66,5.61,16.7,13.31,16.7s13.05-7.18,13.05-16.57-5.61-16.44-13.05-16.44-13.31,7.05-13.31,16.31Z"/>
        <path class="cls-1" d="M391.82,89.11c0,6.79-3.91,11.35-9.66,11.35-4.57,0-7.7-2.48-9.66-7.57-4.83,6-8.74,7.96-15.79,7.96s-13.44-2.48-18.92-7.31c-7.57-6.65-11.35-15.79-11.35-27.4,0-10.57,3.13-18.53,10.05-25.31,5.74-5.74,12.53-8.74,19.96-8.74,6.79,0,10.83,1.96,16.31,7.57,2.09-5.09,4.96-7.18,9.53-7.18,5.35,0,9.52,4.31,9.52,9.79v46.84ZM345.63,66.28c0,10.05,5.22,16.7,13.31,16.7s13.18-6.78,13.18-16.57-5.35-16.44-13.31-16.44-13.18,6.65-13.18,16.31Z"/>
        <path class="cls-1" d="M422.09,87.68c0,4.57-.13,5.74-1.3,7.96-1.44,2.87-4.83,4.83-8.22,4.83s-6.92-1.96-8.35-4.83c-1.17-2.22-1.31-3.26-1.31-7.96V16.57c0-4.57.13-5.74,1.31-7.83,1.43-2.87,4.83-4.83,8.35-4.83s6.78,1.96,8.22,4.7c1.17,2.22,1.3,3.26,1.3,7.96v71.11Z"/>
        <path class="cls-1" d="M495.28,89.11c0,6.79-3.91,11.35-9.66,11.35-4.57,0-7.7-2.48-9.66-7.57-4.83,6-8.74,7.96-15.79,7.96s-13.44-2.48-18.92-7.31c-7.57-6.65-11.35-15.79-11.35-27.4,0-10.57,3.13-18.53,10.05-25.31,5.74-5.74,12.53-8.74,19.96-8.74,6.78,0,10.83,1.96,16.31,7.57,2.09-5.09,4.96-7.18,9.52-7.18,5.35,0,9.53,4.31,9.53,9.79v46.84ZM449.09,66.28c0,10.05,5.22,16.7,13.31,16.7s13.18-6.78,13.18-16.57-5.35-16.44-13.31-16.44-13.18,6.65-13.18,16.31Z"/>
        <path class="cls-1" d="M552.3,36.01c3.26,1.83,5.35,5.22,5.35,8.74,0,4.7-3.39,8.61-7.57,8.61-1.7,0-2.22-.13-6.92-1.96-2.74-1.04-4.83-1.44-6.92-1.44-8.22,0-14.09,6.92-14.09,16.57s5.87,16.44,14.61,16.44c2.35,0,4.96-.65,7.57-1.83,3.26-1.57,3.78-1.7,5.48-1.7,4.44,0,7.96,3.78,7.96,8.74,0,2.61-1.44,5.35-3.65,7.05-4.57,3.39-12,5.61-19.18,5.61-9.39,0-17.22-3.39-23.23-9.92-6.13-6.65-8.74-13.96-8.74-24.66s3.52-19.57,9.92-25.31c6.13-5.61,14.74-8.87,22.83-8.87,5.87,0,12.13,1.44,16.57,3.91Z"/>
        <path class="cls-1" d="M584.66,37.57c6.52-3.91,11.48-5.48,17.61-5.48s12.53,2.35,16.83,6.39c4.7,4.31,6.52,9.52,6.52,17.88v31.31c0,4.57-.13,5.74-1.3,7.96-1.44,2.87-4.83,4.83-8.22,4.83s-6.92-1.96-8.35-4.83c-1.17-2.22-1.3-3.26-1.3-7.96v-25.83c0-8.22-4.04-13.18-10.7-13.18s-11.09,5.09-11.09,11.87v27.14c0,4.57-.13,5.74-1.31,7.96-1.43,2.87-4.83,4.83-8.22,4.83s-6.92-1.96-8.35-4.83c-1.17-2.22-1.3-3.26-1.3-7.96V16.57c0-4.57.13-5.74,1.3-7.96,1.44-2.87,4.83-4.83,8.35-4.83s6.79,1.96,8.22,4.83c1.17,2.22,1.31,3.26,1.31,7.96v21.01Z"/>
        <path class="cls-1" d="M654.07,72.8c2.87,7.7,7.7,11.35,15.27,11.35,4.57,0,5.74-.39,15.79-5.35,1.17-.52,2.74-.91,4.18-.91,3.91,0,7.7,3.78,7.7,7.83,0,7.83-13.96,15.14-28.71,15.14-20.49,0-34.84-13.83-34.84-33.4s13.96-35.36,32.88-35.36c17.88,0,31.84,14.48,31.84,33.14,0,5.35-2.48,7.57-8.35,7.57h-35.75ZM679.25,59.75c-.91-3.65-1.57-5.22-2.74-7.05-2.22-3.13-5.87-4.96-9.79-4.96-6.39,0-10.57,3.65-13.31,12h25.83Z"/>
      </g>
      <g>
        <path class="cls-2" d="M73.88,20.62c0,5.22-3.39,8.87-8.09,8.87-1.96,0-3.26-.39-7.31-2.09-4.04-1.7-6.65-2.22-10.44-2.22-13.7,0-21.92,10.18-21.92,27.27s8.22,26.88,22.05,26.88q4.96,0,13.83-4.04c1.57-.65,3.13-1.04,4.44-1.04,4.44,0,8.09,4.18,8.09,9.13,0,8.48-11.09,14.61-26.36,14.61-26.23,0-43.45-18.27-43.45-46.06S22.47,6.52,47.91,6.52c15.53,0,25.97,5.74,25.97,14.09Z"/>
        <path class="cls-2" d="M142.77,85.33c0,6.78-3.91,11.35-9.66,11.35-4.57,0-7.7-2.48-9.66-7.57-4.83,6-8.74,7.96-15.79,7.96s-13.44-2.48-18.92-7.31c-7.57-6.65-11.35-15.79-11.35-27.4,0-10.57,3.13-18.53,10.05-25.31,5.74-5.74,12.53-8.74,19.96-8.74,6.78,0,10.83,1.96,16.31,7.57,2.09-5.09,4.96-7.18,9.52-7.18,5.35,0,9.52,4.31,9.52,9.79v46.84ZM96.58,62.5c0,10.05,5.22,16.7,13.31,16.7s13.18-6.78,13.18-16.57-5.35-16.44-13.31-16.44-13.18,6.65-13.18,16.31Z"/>
        <path class="cls-2" d="M153.86,39.8c0-6.65,3.78-11.09,9.52-11.09,3.78,0,5.87,1.3,9.26,6.26,5.35-4.83,10.05-6.65,16.83-6.65,4.7,0,9.52,1.17,13.05,3.26,1.96,1.04,3.13,2.22,5.35,5.09,7.7-6.26,12.79-8.35,20.09-8.35,13.31,0,23.09,9.39,23.09,22.18v33.4c0,4.57-.13,5.74-1.3,7.96-1.43,2.87-4.83,4.83-8.22,4.83s-6.92-1.96-8.35-4.83c-1.17-2.22-1.3-3.26-1.3-7.96v-29.1c0-5.87-3.91-9.92-9.79-9.92s-10.05,4.04-10.05,9.92v29.1c0,4.57-.13,5.74-1.3,7.96-1.44,2.87-4.83,4.83-8.22,4.83s-6.92-1.96-8.35-4.83c-1.17-2.22-1.3-3.26-1.3-7.96v-27.27c0-7.44-3.65-11.74-9.92-11.74-5.74,0-9.92,4.18-9.92,9.92v29.1c0,4.57-.13,5.74-1.31,7.96-1.44,2.87-4.83,4.83-8.22,4.83s-6.92-1.96-8.35-4.83c-1.17-2.22-1.31-3.26-1.31-7.96v-44.1Z"/>
        <path class="cls-2" d="M281.59,33.92c5.74-4.18,9.79-5.61,15.53-5.61,16.44,0,29.75,15.14,29.75,34.19s-12.79,34.58-29.62,34.58c-7.18,0-11.87-2.22-15.92-7.57-2.09,4.96-4.83,7.18-9,7.18-5.87,0-9.92-4.18-9.92-10.18V12.79c0-4.57.13-5.74,1.3-7.96,1.44-2.87,4.83-4.83,8.35-4.83s6.79,1.96,8.22,4.83c1.17,2.22,1.31,3.26,1.31,7.96v21.14ZM281.46,62.5c0,9.66,5.61,16.7,13.31,16.7s13.05-7.18,13.05-16.57-5.61-16.44-13.05-16.44-13.31,7.05-13.31,16.31Z"/>
        <path class="cls-2" d="M396.54,85.33c0,6.78-3.91,11.35-9.66,11.35-4.57,0-7.7-2.48-9.66-7.57-4.83,6-8.74,7.96-15.79,7.96s-13.44-2.48-18.92-7.31c-7.57-6.65-11.35-15.79-11.35-27.4,0-10.57,3.13-18.53,10.05-25.31,5.74-5.74,12.53-8.74,19.96-8.74,6.78,0,10.83,1.96,16.31,7.57,2.09-5.09,4.96-7.18,9.52-7.18,5.35,0,9.53,4.31,9.53,9.79v46.84ZM350.35,62.5c0,10.05,5.22,16.7,13.31,16.7s13.18-6.78,13.18-16.57-5.35-16.44-13.31-16.44-13.18,6.65-13.18,16.31Z"/>
        <path class="cls-2" d="M426.81,83.9c0,4.57-.13,5.74-1.31,7.96-1.43,2.87-4.83,4.83-8.22,4.83s-6.92-1.96-8.35-4.83c-1.17-2.22-1.3-3.26-1.3-7.96V12.79c0-4.57.13-5.74,1.3-7.83,1.44-2.87,4.83-4.83,8.35-4.83s6.79,1.96,8.22,4.7c1.17,2.22,1.31,3.26,1.31,7.96v71.11Z"/>
        <path class="cls-2" d="M500.01,85.33c0,6.78-3.91,11.35-9.66,11.35-4.57,0-7.7-2.48-9.66-7.57-4.83,6-8.74,7.96-15.79,7.96s-13.44-2.48-18.92-7.31c-7.57-6.65-11.35-15.79-11.35-27.4,0-10.57,3.13-18.53,10.05-25.31,5.74-5.74,12.53-8.74,19.96-8.74,6.79,0,10.83,1.96,16.31,7.57,2.09-5.09,4.96-7.18,9.53-7.18,5.35,0,9.52,4.31,9.52,9.79v46.84ZM453.82,62.5c0,10.05,5.22,16.7,13.31,16.7s13.18-6.78,13.18-16.57-5.35-16.44-13.31-16.44-13.18,6.65-13.18,16.31Z"/>
        <path class="cls-2" d="M557.02,32.23c3.26,1.83,5.35,5.22,5.35,8.74,0,4.7-3.39,8.61-7.57,8.61-1.7,0-2.22-.13-6.92-1.96-2.74-1.04-4.83-1.44-6.92-1.44-8.22,0-14.09,6.92-14.09,16.57s5.87,16.44,14.61,16.44c2.35,0,4.96-.65,7.57-1.83,3.26-1.57,3.78-1.7,5.48-1.7,4.44,0,7.96,3.78,7.96,8.74,0,2.61-1.44,5.35-3.65,7.05-4.57,3.39-12,5.61-19.18,5.61-9.39,0-17.22-3.39-23.22-9.92-6.13-6.65-8.74-13.96-8.74-24.66s3.52-19.57,9.92-25.31c6.13-5.61,14.74-8.87,22.83-8.87,5.87,0,12.13,1.44,16.57,3.91Z"/>
        <path class="cls-2" d="M589.38,33.79c6.52-3.91,11.48-5.48,17.61-5.48s12.53,2.35,16.83,6.39c4.7,4.31,6.52,9.52,6.52,17.88v31.31c0,4.57-.13,5.74-1.3,7.96-1.43,2.87-4.83,4.83-8.22,4.83s-6.92-1.96-8.35-4.83c-1.17-2.22-1.3-3.26-1.3-7.96v-25.83c0-8.22-4.04-13.18-10.7-13.18s-11.09,5.09-11.09,11.87v27.14c0,4.57-.13,5.74-1.3,7.96-1.44,2.87-4.83,4.83-8.22,4.83s-6.92-1.96-8.35-4.83c-1.17-2.22-1.31-3.26-1.31-7.96V12.79c0-4.57.13-5.74,1.31-7.96,1.43-2.87,4.83-4.83,8.35-4.83s6.78,1.96,8.22,4.83c1.17,2.22,1.3,3.26,1.3,7.96v21.01Z"/>
        <path class="cls-2" d="M658.79,69.02c2.87,7.7,7.7,11.35,15.27,11.35,4.57,0,5.74-.39,15.79-5.35,1.17-.52,2.74-.91,4.17-.91,3.92,0,7.7,3.78,7.7,7.83,0,7.83-13.96,15.14-28.71,15.14-20.48,0-34.84-13.83-34.84-33.4s13.96-35.36,32.88-35.36c17.88,0,31.84,14.48,31.84,33.14,0,5.35-2.48,7.57-8.35,7.57h-35.75ZM683.98,55.98c-.91-3.65-1.57-5.22-2.74-7.05-2.22-3.13-5.87-4.96-9.79-4.96-6.39,0-10.57,3.65-13.31,12h25.83Z"/>
      </g>
    </g>
  </g>
</svg>